<svg width="328" height="90" viewBox="0 0 328 90" fill="none" xmlns="http://www.w3.org/2000/svg">
<path d="M20.7749 71V19.88H0.614883V8H55.5149V19.88H35.3549V71H20.7749ZM88.6087 71V61.55L87.7087 59.48V42.56C87.7087 39.56 86.7787 37.22 84.9187 35.54C83.1187 33.86 80.3287 33.02 76.5487 33.02C73.9687 33.02 71.4187 33.44 68.8987 34.28C66.4387 35.06 64.3387 36.14 62.5987 37.52L57.5587 27.71C60.1987 25.85 63.3787 24.41 67.0987 23.39C70.8187 22.37 74.5987 21.86 78.4387 21.86C85.8187 21.86 91.5487 23.6 95.6287 27.08C99.7087 30.56 101.749 35.99 101.749 43.37V71H88.6087ZM73.8487 71.72C70.0687 71.72 66.8287 71.09 64.1287 69.83C61.4287 68.51 59.3587 66.74 57.9187 64.52C56.4787 62.3 55.7587 59.81 55.7587 57.05C55.7587 54.17 56.4487 51.65 57.8287 49.49C59.2687 47.33 61.5187 45.65 64.5787 44.45C67.6387 43.19 71.6287 42.56 76.5487 42.56H89.4187V50.75H78.0787C74.7787 50.75 72.4987 51.29 71.2387 52.37C70.0387 53.45 69.4387 54.8 69.4387 56.42C69.4387 58.22 70.1287 59.66 71.5087 60.74C72.9487 61.76 74.8987 62.27 77.3587 62.27C79.6987 62.27 81.7987 61.73 83.6587 60.65C85.5187 59.51 86.8687 57.86 87.7087 55.7L89.8687 62.18C88.8487 65.3 86.9887 67.67 84.2887 69.29C81.5887 70.91 78.1087 71.72 73.8487 71.72ZM129.746 71.72C125.606 71.72 121.616 71.24 117.776 70.28C113.996 69.26 110.996 68 108.776 66.5L113.456 56.42C115.676 57.8 118.286 58.94 121.286 59.84C124.346 60.68 127.346 61.1 130.286 61.1C133.526 61.1 135.806 60.71 137.126 59.93C138.506 59.15 139.196 58.07 139.196 56.69C139.196 55.55 138.656 54.71 137.576 54.17C136.556 53.57 135.176 53.12 133.436 52.82C131.696 52.52 129.776 52.22 127.676 51.92C125.636 51.62 123.566 51.23 121.466 50.75C119.366 50.21 117.446 49.43 115.706 48.41C113.966 47.39 112.556 46.01 111.476 44.27C110.456 42.53 109.946 40.28 109.946 37.52C109.946 34.46 110.816 31.76 112.556 29.42C114.356 27.08 116.936 25.25 120.296 23.93C123.656 22.55 127.676 21.86 132.356 21.86C135.656 21.86 139.016 22.22 142.436 22.94C145.856 23.66 148.706 24.71 150.986 26.09L146.306 36.08C143.966 34.7 141.596 33.77 139.196 33.29C136.856 32.75 134.576 32.48 132.356 32.48C129.236 32.48 126.956 32.9 125.516 33.74C124.076 34.58 123.356 35.66 123.356 36.98C123.356 38.18 123.866 39.08 124.886 39.68C125.966 40.28 127.376 40.76 129.116 41.12C130.856 41.48 132.746 41.81 134.786 42.11C136.886 42.35 138.986 42.74 141.086 43.28C143.186 43.82 145.076 44.6 146.756 45.62C148.496 46.58 149.906 47.93 150.986 49.67C152.066 51.35 152.606 53.57 152.606 56.33C152.606 59.33 151.706 62 149.906 64.34C148.106 66.62 145.496 68.42 142.076 69.74C138.716 71.06 134.606 71.72 129.746 71.72ZM171.878 61.1L172.238 44L194.828 22.58H211.568L189.878 44.63L182.588 50.57L171.878 61.1ZM160.268 71V4.22H174.308V71H160.268ZM196.358 71L179.978 50.66L188.798 39.77L213.368 71H196.358ZM218.682 71V22.58H232.722V71H218.682ZM225.702 15.83C223.122 15.83 221.022 15.08 219.402 13.58C217.782 12.08 216.972 10.22 216.972 8C216.972 5.78 217.782 3.92 219.402 2.42C221.022 0.919996 223.122 0.169995 225.702 0.169995C228.282 0.169995 230.382 0.889996 232.002 2.33C233.622 3.71 234.432 5.51 234.432 7.73C234.432 10.07 233.622 12.02 232.002 13.58C230.442 15.08 228.342 15.83 225.702 15.83ZM246.462 71V21.5C246.462 16.04 248.082 11.69 251.322 8.45C254.562 5.14999 259.182 3.49999 265.182 3.49999C267.222 3.49999 269.172 3.71 271.032 4.13C272.952 4.55 274.572 5.21 275.892 6.11L272.202 16.28C271.422 15.74 270.552 15.32 269.592 15.02C268.632 14.72 267.612 14.57 266.532 14.57C264.492 14.57 262.902 15.17 261.762 16.37C260.682 17.51 260.142 19.25 260.142 21.59V26.09L260.502 32.12V71H246.462ZM238.992 34.46V23.66H272.562V34.46H238.992ZM285.556 89.18C283.036 89.18 280.546 88.79 278.086 88.01C275.626 87.23 273.616 86.15 272.056 84.77L277.186 74.78C278.266 75.74 279.496 76.49 280.876 77.03C282.316 77.57 283.726 77.84 285.106 77.84C287.086 77.84 288.646 77.36 289.786 76.4C290.986 75.5 292.066 73.97 293.026 71.81L295.546 65.87L296.626 64.34L313.996 22.58H327.496L305.626 73.97C304.066 77.87 302.266 80.93 300.226 83.15C298.246 85.37 296.026 86.93 293.566 87.83C291.166 88.73 288.496 89.18 285.556 89.18ZM293.836 72.89L272.236 22.58H286.726L303.466 63.08L293.836 72.89Z" fill="#5534DA"/>
</svg>
